<?xml version="1.0" encoding="UTF-8" standalone="no"?>
<svg
   width="612"
   height="150"
   viewBox="0 0 161.92499 39.687503"
   version="1.1"
   id="svg8"
   inkscape:export-filename="../../../../../../Documents/DinZZer/blogger_linuxitos.png"
   inkscape:export-xdpi="96"
   inkscape:export-ydpi="96"
   inkscape:version="1.2.2 (b0a8486541, 2022-12-01)"
   sodipodi:docname="logo_navbar (copy).svg"
   xml:space="preserve"
   xmlns:inkscape="http://www.inkscape.org/namespaces/inkscape"
   xmlns:sodipodi="http://sodipodi.sourceforge.net/DTD/sodipodi-0.dtd"
   xmlns="http://www.w3.org/2000/svg"
   xmlns:svg="http://www.w3.org/2000/svg"
   xmlns:rdf="http://www.w3.org/1999/02/22-rdf-syntax-ns#"
   xmlns:cc="http://creativecommons.org/ns#"
   xmlns:dc="http://purl.org/dc/elements/1.1/"><defs
     id="defs2" /><sodipodi:namedview
     id="base"
     pagecolor="#ffffff"
     bordercolor="#666666"
     borderopacity="1.0"
     inkscape:pageopacity="0.0"
     inkscape:pageshadow="2"
     inkscape:zoom="0.99999999"
     inkscape:cx="407"
     inkscape:cy="206"
     inkscape:document-units="px"
     inkscape:current-layer="layer1"
     showgrid="false"
     units="px"
     inkscape:window-width="1920"
     inkscape:window-height="1047"
     inkscape:window-x="0"
     inkscape:window-y="0"
     inkscape:window-maximized="1"
     inkscape:snap-global="false"
     showguides="true"
     inkscape:guide-bbox="true"
     inkscape:document-rotation="0"
     inkscape:showpageshadow="2"
     inkscape:pagecheckerboard="0"
     inkscape:deskcolor="#d1d1d1"><sodipodi:guide
       position="-74.943225,1.5874973"
       orientation="0,1"
       id="guide997"
       inkscape:locked="false" /></sodipodi:namedview><metadata
     id="metadata5"><rdf:RDF><cc:Work
         rdf:about=""><dc:format>image/svg+xml</dc:format><dc:type
           rdf:resource="http://purl.org/dc/dcmitype/StillImage" /></cc:Work></rdf:RDF></metadata><g
     inkscape:label="Layer 1"
     inkscape:groupmode="layer"
     id="layer1"
     transform="translate(0,-287.73958)"><g
       id="g83"
       transform="matrix(4.2759069,0,0,4.2759069,1.0318608,-942.71983)"><g
         id="g896"><g
           transform="matrix(0.08878944,0,0,0.08878944,15.671153,247.86711)"
           id="g979"><path
             style="fill:#e64c3d;stroke-width:0.240923"
             d="m 72.695392,475.85822 c -2.512584,-0.71286 -4.804422,-2.70425 -5.967408,-5.18511 -0.560393,-1.19542 -0.640956,-1.67074 -0.640956,-3.78158 0,-2.23562 0.05779,-2.53169 0.780901,-4.00053 0.940464,-1.91036 2.66366,-3.60217 4.587334,-4.50379 1.206347,-0.56542 1.677134,-0.64569 3.786847,-0.64569 2.109719,0 2.580505,0.0802 3.786863,0.64569 1.933372,0.90617 3.656556,2.60094 4.588321,4.51269 0.71636,1.46972 0.773152,1.76616 0.765604,3.9967 -0.0073,2.08317 -0.09404,2.59573 -0.642977,3.78724 -1.484038,3.22131 -4.460976,5.23166 -7.990328,5.39592 -1.157295,0.0538 -2.401683,-0.0364 -3.054201,-0.22154 z"
             id="path987-9"
             inkscape:connector-curvature="0"
             sodipodi:nodetypes="cssccscccccc" /></g></g><g
         aria-label="linuxitos"
         id="text15"
         style="font-size:10.5833px;line-height:1.25;font-family:Brastagi;-inkscape-font-specification:Brastagi;fill:#2c3e50;fill-opacity:1;stroke-width:0.264583"
         transform="matrix(1.0705838,0,0,1.0705838,-0.35010873,-31.37117)"><path
           d="m 2.7768835,305.74229 v -0.52917 c -0.1269996,0.0529 -0.2645825,0.0741 -0.4021654,0.0741 -0.2645825,0 -0.2751658,-0.33867 -0.2751658,-0.64558 v -6.0854 H 0.78722316 v 6.0854 c 0,0.70908 0.27516584,1.42874 0.89958044,1.42874 0.3809988,0 0.7619976,-0.127 1.0900799,-0.32808 z"
           style="font-style:normal;font-variant:normal;font-weight:normal;font-stretch:normal;font-family:'Iwona Cond Heavy';-inkscape-font-specification:'Iwona Cond Heavy, ';fill:#2c3e50;fill-opacity:1;stroke-width:0.264583"
           id="path35"
           inkscape:connector-curvature="0" /><path
           d="m 5.4756188,305.74229 v -0.52917 c -0.1269996,0.0529 -0.2645825,0.0741 -0.4021654,0.0741 -0.2645825,0 -0.2751658,-0.33867 -0.2751658,-0.64558 v -3.43958 H 3.4859585 v 3.43958 c 0,0.70908 0.2751658,1.42874 0.8995804,1.42874 0.3809988,0 0.7619976,-0.127 1.0900799,-0.32808 z"
           style="font-style:normal;font-variant:normal;font-weight:normal;font-stretch:normal;font-family:'Iwona Cond Heavy';-inkscape-font-specification:'Iwona Cond Heavy, ';fill:#2c3e50;fill-opacity:1;stroke-width:0.264583"
           id="path37"
           inkscape:connector-curvature="0"
           sodipodi:nodetypes="ccssccsscc" /><path
           d="m 10.047595,305.96454 v -3.43957 c 0,-0.74083 -0.4444981,-1.42875 -1.1429959,-1.42875 -0.5820815,0 -1.0265801,0.45508 -1.375829,0.94191 v -0.83608 H 6.216441 v 4.76249 h 1.3123291 v -3.41841 c 0.1693328,-0.3175 0.3704155,-0.66675 0.7196644,-0.66675 0.3069157,0 0.4868318,0.3175 0.4868318,0.64559 v 3.43957 z"
           style="font-style:normal;font-variant:normal;font-weight:normal;font-stretch:normal;font-family:'Iwona Cond Heavy';-inkscape-font-specification:'Iwona Cond Heavy, ';fill:#2c3e50;fill-opacity:1;stroke-width:0.264583"
           id="path39"
           inkscape:connector-curvature="0" /><path
           d="m 15.000566,305.96454 v -4.76249 h -1.312329 v 3.41841 c -0.169333,0.3175 -0.370415,0.66675 -0.719664,0.66675 -0.306916,0 -0.486832,-0.3175 -0.486832,-0.64558 v -3.43958 h -1.312329 v 3.43958 c 0,0.74083 0.444498,1.42874 1.142996,1.42874 0.582082,0 1.02658,-0.45508 1.375829,-0.94191 v 0.83608 z"
           style="font-style:normal;font-variant:normal;font-weight:normal;font-stretch:normal;font-family:'Iwona Cond Heavy';-inkscape-font-specification:'Iwona Cond Heavy, ';fill:#2c3e50;fill-opacity:1;stroke-width:0.264583"
           id="path41"
           inkscape:connector-curvature="0" /><path
           d="m 19.837122,305.96454 -1.460495,-2.62466 1.407579,-2.13783 h -0.857248 l -0.941913,1.42875 -0.783164,-1.42875 h -1.354663 l 1.386412,2.49766 -1.492245,2.26483 h 0.857248 l 1.02658,-1.55575 0.857247,1.55575 z"
           style="font-style:normal;font-variant:normal;font-weight:normal;font-stretch:normal;font-family:'Iwona Cond Heavy';-inkscape-font-specification:'Iwona Cond Heavy, ';fill:#2c3e50;fill-opacity:1;stroke-width:0.264583"
           id="path43"
           inkscape:connector-curvature="0" /><path
           d="m 22.535852,305.74229 v -0.52917 c -0.127,0.0529 -0.264583,0.0741 -0.402166,0.0741 -0.264582,0 -0.275166,-0.33867 -0.275166,-0.64558 v -3.43958 h -1.312329 v 3.43958 c 0,0.70908 0.275166,1.42874 0.899581,1.42874 0.380999,0 0.761997,-0.127 1.09008,-0.32808 z"
           style="font-style:normal;font-variant:normal;font-weight:normal;font-stretch:normal;font-family:'Iwona Cond Heavy';-inkscape-font-specification:'Iwona Cond Heavy, ';fill:#2c3e50;fill-opacity:1;stroke-width:0.264583"
           id="path45"
           inkscape:connector-curvature="0"
           sodipodi:nodetypes="ccssccsscc" /><path
           d="m 25.075836,305.59412 v -0.51858 c -0.08467,0.10583 -0.179916,0.21167 -0.317499,0.21167 -0.211666,0 -0.211666,-0.34925 -0.211666,-0.64558 v -2.71991 h 0.529165 v -0.71967 h -0.529165 v -1.58749 h -0.783164 c 0,0.79375 -0.179916,1.64041 -0.857247,1.64041 v 0.66675 h 0.328082 v 2.71991 c 0,0.69849 0.22225,1.42874 0.825498,1.42874 0.391582,0 0.730247,-0.21166 1.015996,-0.47625 z"
           style="font-style:normal;font-variant:normal;font-weight:normal;font-stretch:normal;font-family:'Iwona Cond Heavy';-inkscape-font-specification:'Iwona Cond Heavy, ';fill:#2c3e50;fill-opacity:1;stroke-width:0.264583"
           id="path47"
           inkscape:connector-curvature="0" /><path
           d="m 29.806567,303.5833 c 0,-1.61925 -0.719664,-2.48708 -2.042577,-2.48708 -1.333495,0 -2.05316,0.86783 -2.05316,2.48708 0,1.61924 0.719665,2.48707 2.05316,2.48707 1.322913,0 2.042577,-0.86783 2.042577,-2.48707 z m -1.418162,0 c 0,1.15358 -0.222249,1.76741 -0.624415,1.76741 -0.412748,0 -0.634998,-0.61383 -0.634998,-1.76741 0,-1.15358 0.22225,-1.76741 0.634998,-1.76741 0.402166,0 0.624415,0.61383 0.624415,1.76741 z"
           style="font-style:normal;font-variant:normal;font-weight:normal;font-stretch:normal;font-family:'Iwona Cond Heavy';-inkscape-font-specification:'Iwona Cond Heavy, ';fill:#2c3e50;fill-opacity:1;stroke-width:0.264583"
           id="path49"
           inkscape:connector-curvature="0" /><path
           d="m 34.166875,304.47229 c 0,-0.81491 -0.846664,-1.24883 -1.640412,-1.53458 -0.328082,-0.12699 -0.656165,-0.30691 -0.656165,-0.63499 0,-0.26459 0.1905,-0.48683 0.455082,-0.48683 0.550332,0 1.09008,0.11641 1.598079,0.33866 v -0.71966 c -0.507999,-0.22225 -1.047747,-0.33867 -1.598079,-0.33867 -0.920747,0 -1.725077,0.65617 -1.725077,1.54516 0,0.74083 0.783164,1.13242 1.513411,1.397 0.391582,0.14816 0.783165,0.381 0.783165,0.77258 0,0.30691 -0.264583,0.53975 -0.571499,0.53975 -0.634998,0 -1.259412,-0.11642 -1.852077,-0.33867 v 0.71967 c 0.592665,0.22225 1.217079,0.33866 1.852077,0.33866 0.973664,0 1.841495,-0.66675 1.841495,-1.59808 z"
           style="font-style:normal;font-variant:normal;font-weight:normal;font-stretch:normal;font-family:'Iwona Cond Heavy';-inkscape-font-specification:'Iwona Cond Heavy, ';fill:#2c3e50;fill-opacity:1;stroke-width:0.264583"
           id="path51"
           inkscape:connector-curvature="0" /></g><path
         sodipodi:nodetypes="csssccc"
         inkscape:connector-curvature="0"
         id="path989-7"
         d="m 3.8716261,290.11774 c -0.2317944,-0.0769 -0.4161528,-0.2305 -0.5121903,-0.4268 -0.2488323,-0.50859 0.05662,-1.1005 0.6126309,-1.18715 0.5531976,-0.0862 1.0399983,0.40591 0.9397402,0.95003 -0.052092,0.28272 -0.2130578,0.49345 -0.4680431,0.61278 -0.1152275,0.054 -0.175175,0.0679 -0.3144689,0.0731 -0.1032289,0.004 -0.2063458,-0.005 -0.2576688,-0.0219 z"
         style="fill:#3698da;stroke-width:0.0213914" /></g></g></svg>
